<?xml version="1.0" standalone="no"?>
<!DOCTYPE svg PUBLIC "-//W3C//DTD SVG 20010904//EN"
 "http://www.w3.org/TR/2001/REC-SVG-20010904/DTD/svg10.dtd">
<svg version="1.0" xmlns="http://www.w3.org/2000/svg"
  viewBox="0 0 469 274"
 preserveAspectRatio="xMidYMid meet">
<metadata>
Created by potrace 1.7, written by Peter Selinger 2001-2005
</metadata>
<g transform="translate(0,274) scale(0.255738,-0.255738)"
fill="#000000" stroke="none">
<path d="M1115 979 c-85 -47 -93 -49 -166 -49 -75 0 -249 -33 -338 -65 -24 -8
-45 -15 -46 -15 -1 0 -5 14 -9 31 -7 37 -57 89 -85 89 -16 0 -21 -6 -21 -27 0
-27 -104 -253 -122 -264 -11 -7 15 -19 42 -19 14 0 23 13 34 48 28 84 74 213
78 218 3 2 15 -18 26 -46 l21 -50 -25 -6 c-32 -8 -30 -19 4 -33 26 -11 34 -9
81 24 56 37 76 44 68 21 -3 -8 -11 -33 -18 -56 -9 -28 -21 -46 -41 -56 -30
-15 -30 -34 0 -34 15 0 17 -12 14 -105 -4 -114 7 -136 29 -59 12 39 20 48 59
66 30 14 40 22 28 25 -9 2 -26 -1 -37 -6 -32 -18 -43 -14 -30 10 6 12 33 31
60 42 27 12 49 25 49 29 0 11 -12 10 -59 -7 -38 -13 -41 -13 -41 3 0 28 13 40
72 66 31 14 60 30 64 37 5 9 2 10 -9 6 -34 -13 -99 -28 -103 -24 -3 2 1 25 8
51 12 44 15 47 63 61 78 24 170 36 196 26 23 -8 22 -9 -16 -29 l-40 -20 27 -7
c21 -5 38 1 85 33 32 22 93 60 136 85 l78 46 11 -25 c9 -20 7 -39 -12 -99 -20
-63 -26 -74 -42 -69 -34 10 -18 -4 35 -31 82 -42 85 -48 53 -89 -14 -19 -51
-50 -81 -68 -59 -35 -64 -42 -39 -52 24 -9 111 42 154 91 l38 43 51 -56 c28
-30 51 -60 51 -64 0 -17 -86 -115 -121 -137 -19 -12 -49 -34 -68 -49 -32 -27
-32 -28 -12 -36 12 -4 30 -4 39 2 9 5 38 19 65 31 47 23 94 66 117 109 l13 24
28 -35 c64 -78 64 -80 16 -146 -31 -42 -68 -75 -133 -117 -208 -136 -200 -130
-165 -141 20 -6 96 19 122 42 8 7 19 13 22 13 22 0 150 96 189 141 l47 54 25
-56 c13 -31 29 -74 35 -96 11 -40 31 -65 64 -76 15 -5 17 0 17 40 0 52 -64
208 -114 279 -69 97 -157 204 -199 240 -38 34 -152 107 -180 117 -5 1 0 22 12
45 40 79 16 184 -42 181 -12 -1 -62 -23 -112 -50z"/>
<path d="M1109 932 c-49 -32 -82 -62 -75 -69 3 -3 38 11 78 30 40 20 82 39 93
42 16 5 17 8 5 15 -26 16 -54 11 -101 -18z"/>
<path d="M925 731 c-39 -20 -138 -109 -182 -163 -22 -27 -22 -28 -3 -38 30
-16 37 -13 63 33 14 23 34 50 45 60 16 15 21 15 31 3 9 -11 9 -25 0 -60 -9
-38 -9 -50 4 -69 15 -24 15 -24 -44 -52 -51 -25 -57 -31 -46 -43 12 -11 27 -7
103 28 150 70 205 91 262 100 60 10 70 16 56 30 -10 10 -132 -11 -169 -29 -11
-6 -39 -15 -62 -21 -23 -6 -45 -15 -48 -20 -14 -23 -26 -7 -23 33 2 32 7 41
18 38 8 -3 29 -5 45 -5 25 -1 33 5 47 34 18 36 24 115 10 137 -15 23 -65 25
-107 4z m78 -48 c-2 -45 -27 -93 -49 -93 -8 0 -28 14 -46 30 l-33 30 45 40
c59 53 86 51 83 -7z"/>
<path d="M490 646 c-25 -12 -86 -50 -137 -83 -68 -45 -89 -63 -80 -72 18 -18
31 -13 83 35 65 60 84 71 84 46 0 -22 60 -82 83 -82 25 0 47 41 54 100 5 44 3
55 -12 66 -24 18 -22 18 -75 -10z m50 -31 c-10 -44 -38 -87 -53 -82 -6 2 -15
19 -20 37 -8 31 -6 37 20 57 15 13 35 23 44 23 14 0 16 -6 9 -35z"/>
<path d="M379 447 c-11 -31 -21 -43 -44 -50 -49 -14 -220 -101 -220 -112 0
-18 45 -17 72 3 16 10 61 35 101 56 72 37 72 37 72 13 0 -15 -9 -28 -24 -35
-38 -17 -176 -106 -176 -113 -1 -29 112 25 181 87 15 13 17 13 23 -3 5 -12 0
-23 -13 -33 -11 -8 -54 -40 -95 -70 -47 -35 -70 -58 -63 -62 20 -13 33 -9 62
18 16 15 51 44 77 65 45 35 53 38 93 32 30 -4 57 0 85 11 55 22 73 21 186 -15
113 -35 180 -35 272 1 62 24 93 25 147 4 70 -27 75 -27 75 -11 0 20 -26 35
-79 43 -22 4 -41 9 -41 12 0 22 37 82 51 82 23 0 110 -17 133 -26 12 -5 17 -4
13 3 -6 10 -57 26 -123 38 -26 5 -30 10 -31 41 -1 33 -17 64 -33 64 -5 0 -8
-21 -7 -47 l2 -48 -75 -6 c-139 -12 -200 -21 -200 -31 0 -5 12 -7 28 -4 15 2
71 8 125 11 86 6 97 5 97 -10 0 -9 -11 -27 -24 -40 -21 -21 -29 -23 -50 -15
-14 5 -60 11 -103 14 l-78 6 50 -15 c28 -8 62 -15 78 -15 30 0 36 -14 11 -24
-10 -4 -49 -9 -88 -12 -57 -5 -83 -1 -131 16 -84 30 -181 37 -239 17 -25 -9
-46 -14 -46 -12 0 2 19 17 42 34 51 38 44 39 -22 6 -59 -30 -60 -30 -60 -5 0
11 11 27 25 36 30 20 26 31 -4 14 -18 -9 -21 -8 -21 8 0 11 12 25 28 32 25 13
25 14 6 17 -16 3 -20 10 -16 32 6 45 -13 44 -29 -2z"/>
<path d="M655 475 c-5 -1 -38 -11 -72 -20 -52 -15 -61 -21 -51 -32 6 -8 18
-11 27 -7 9 3 37 14 63 24 l48 18 -16 -29 c-12 -25 -18 -28 -34 -19 -14 8 -26
7 -41 0 -18 -10 -19 -14 -6 -33 26 -39 44 -44 66 -17 61 74 76 101 60 111 -14
9 -26 10 -44 4z m-35 -95 c0 -5 -4 -10 -10 -10 -5 0 -10 5 -10 10 0 6 5 10 10
10 6 0 10 -4 10 -10z"/>
</g>
</svg>
